<svg xmlns="http://www.w3.org/2000/svg" viewBox="0 0 32 32"><path fill="#f4d0a4" d="M10.144 20.645c-2.187-1.193-4.21-2.408-4.498-2.7-.52-.532-.52-.532-.516-5.44.004-4.405.04-4.985.358-5.65.195-.41.64-.945.99-1.192s2.46-1.443 4.69-2.658C14.394 1.245 15.358.8 15.9.813c.376.01 2.55.485 4.83 1.057 2.895.726 4.21 1.135 4.356 1.355.147.224.15.404.006.62-.11.166-2.07 1.304-4.355 2.53-2.284 1.223-4.34 2.27-4.57 2.326-.228.057-2.14-.303-4.245-.8-2.107-.494-3.938-.86-4.068-.812-.13.047-.286.208-.346.356s-.03.405.063.572c.097.166 1.61 1.07 3.363 2.007 1.754.938 3.424 1.925 3.71 2.194.52.49.52.49.52 5.362 0 4.633-.017 4.882-.365 5.06-.202.102-.436.183-.52.18-.086-.003-1.945-.98-4.133-2.174zm6.77 1.973c-.177-.17-.236-1.447-.236-5.13 0-4.904 0-4.904.548-5.342.3-.242 1.963-1.2 3.693-2.128 1.73-.93 3.143-1.785 3.143-1.903 0-.118-.47-.466-1.04-.774-.574-.305-1.043-.632-1.043-.724 0-.09.235-.32.522-.51.286-.188.682-.4.88-.467.246-.086.77.107 1.656.61.924.52 1.337.87 1.44 1.22.078.27.143 2.6.143 5.18 0 4.038-.04 4.757-.307 5.138-.173.248-2.094 1.417-4.373 2.66-2.237 1.22-4.228 2.257-4.427 2.306-.2.05-.468-.01-.598-.135z"/><path fill="#cda1d5" d="M16.915 22.618c-.178-.17-.237-1.447-.237-5.13 0-4.904 0-4.904.548-5.342.3-.242 1.963-1.2 3.693-2.128 1.73-.93 3.143-1.785 3.143-1.903 0-.118-.47-.466-1.04-.774-.574-.305-1.043-.632-1.043-.724 0-.09.235-.32.522-.51.286-.188.682-.4.88-.467.246-.086.77.107 1.656.61.924.52 1.337.87 1.44 1.22.078.27.143 2.6.143 5.18 0 4.038-.04 4.757-.307 5.138-.173.248-2.094 1.417-4.373 2.66-2.237 1.22-4.228 2.257-4.427 2.306-.2.05-.468-.01-.598-.135zm-6.835-2.266c-3.07-1.664-4.304-2.428-4.498-2.785-.21-.385-.267-1.477-.266-5.05 0-2.51.085-4.848.188-5.2.102-.35.464-.89.803-1.2.34-.31 2.257-1.454 4.26-2.545 2.004-1.09 3.87-2.152 4.145-2.36.335-.25.76-.37 1.28-.36.43.007 2.605.474 4.834 1.036 2.817.71 4.116 1.118 4.26 1.337.145.22.148.405.01.614-.11.163-1.302.894-2.65 1.625-1.35.73-3.342 1.785-4.427 2.345-1.975 1.018-1.975 1.018-3.22.628-.687-.214-2.47-.678-3.968-1.03-2.528-.593-2.752-.618-3.172-.356-.248.155-.45.43-.45.61s.162.47.36.64c.2.172 1.883 1.146 3.74 2.165 2.125 1.164 3.466 2.013 3.614 2.284.166.31.234 1.696.236 4.816.002 2.682-.073 4.518-.193 4.73-.108.193-.3.35-.426.35s-2.132-1.032-4.46-2.293z"/><path fill="#e6870d" d="M11.28 20.837c-1.562-.877-3.392-1.903-4.067-2.28-.675-.38-1.337-.89-1.472-1.14-.185-.342-.23-1.603-.192-5.315.05-4.758.062-4.88.49-5.45.25-.334 1.225-1.023 2.272-1.607 1.01-.562 3.063-1.716 4.564-2.563 2.73-1.54 2.73-1.54 7.174-.467 2.445.592 4.583 1.172 4.75 1.29.274.19.276.243.024.474-.157.142-2.074 1.204-4.26 2.36-2.19 1.155-4.187 2.15-4.443 2.212-.257.06-.98-.028-1.61-.198-.63-.17-2.336-.594-3.79-.942-2.05-.49-2.74-.59-3.07-.446-.238.102-.484.384-.548.626-.064.242-.024.603.088.802.113.2 1.72 1.174 3.568 2.164 1.85.99 3.514 1.93 3.698 2.09.306.264.33.693.284 5.104-.043 4.123-.09 4.82-.334 4.846-.157.016-1.563-.687-3.125-1.563zm5.815 1.41c-.165-.155-.227-1.435-.225-4.64.002-3.188.07-4.55.24-4.87.16-.3 1.412-1.084 3.736-2.344 2.142-1.16 3.522-2.018 3.56-2.21.044-.216-.238-.494-.896-.884-.53-.314-.96-.637-.96-.72 0-.08.222-.287.495-.46.48-.297.53-.29 1.523.204.565.282 1.194.714 1.398.96.346.42.37.755.37 5.103 0 2.996-.073 4.808-.207 5.087-.144.296-1.533 1.163-4.347 2.712-2.274 1.253-4.21 2.278-4.3 2.278-.09 0-.264-.098-.39-.217z"/><path fill="#e6870d" d="M4.93 24.35l-.352.12q-.145-.442-.48-.67-.33-.227-.723-.227-.475 0-.777.306-.298.305-.298.747 0 .227.103.413.104.186.277.32.174.13.397.247.228.11.476.215.252.103.5.22.252.11.475.26.228.148.402.33.173.182.276.447.104.263.104.586 0 .537-.277.963-.277.425-.72.648-.442.223-.955.223-.334 0-.64-.106-.306-.108-.57-.32-.265-.214-.452-.57-.186-.355-.243-.814l.368-.045q.104.744.53 1.112.43.364 1.008.364.41 0 .765-.17.356-.172.583-.51.232-.344.232-.787 0-.277-.104-.5-.103-.223-.277-.376-.173-.153-.4-.28-.224-.13-.476-.233l-.5-.215q-.247-.108-.475-.24-.223-.133-.397-.29-.173-.157-.277-.385-.102-.23-.102-.516 0-.597.405-1.014.405-.422 1.042-.422.496 0 .93.31.438.306.625.856zm.876.89h.38l1.443 3.7 1.41-3.7h.396l-2.41 6.345H6.63l.813-2.146zm4.353 0h.396q.08.272.08.553v.52q.094-.318.44-.66.348-.344.7-.48l.413.293q-.365 0-.728.257-.36.256-.596.682-.23.42-.23.872v2.154h-.373v-3.637q0-.356-.104-.554zm5.89 4.19h-.396q-.075-.235-.075-.553v-.327q-.298.414-.716.683-.413.268-.876.268-.335 0-.6-.102-.26-.108-.413-.28-.153-.175-.232-.37-.078-.198-.078-.4 0-.21.062-.39.066-.177.165-.3.103-.13.27-.228.168-.103.32-.165.158-.066.39-.112.23-.05.4-.07.17-.025.423-.037.252-.013.397-.013.148-.004.376-.004h.11q-.02-.683-.404-1.088-.38-.405-.88-.405-.294 0-.575.153-.278.153-.485.446l-.293-.194q.252-.39.607-.583.355-.195.744-.195.314 0 .603.128.294.124.525.355.232.228.372.587.145.36.153.794v1.847q0 .36.104.554zm-2.062-.297q.475 0 .922-.318.446-.318.67-.728v-.793l-.327.008q-.128.004-.356.02-.223.013-.38.033-.157.017-.368.058-.208.042-.352.095-.145.05-.302.133-.153.08-.248.178-.095.096-.157.232-.057.136-.057.298 0 .297.248.54.25.245.708.245zm7.082.298h-.397q-.07-.243-.07-.553v-.52q-.158.43-.625.785-.463.35-.93.35-.525 0-.967-.293-.438-.294-.69-.79-.248-.5-.248-1.08 0-.578.248-1.07.252-.496.69-.79.443-.297.968-.297.476 0 .94.347.462.343.615.794V23.26h.367v5.617q0 .356.1.554zm-.93-.83q.463-.525.463-1.27 0-.743-.46-1.264-.458-.52-1.095-.52-.632 0-1.096.52-.463.52-.463 1.265 0 .74.462 1.27.464.525 1.096.525.633 0 1.092-.525zm2.43-1.62h3.047q-.115-.625-.545-1.03-.43-.405-.984-.405-.55 0-.98.405-.426.405-.538 1.03zm3.453.35h-3.51q0 .74.463 1.258.463.516 1.095.516.42 0 .82-.223.4-.222.612-.598l.326.186q-.252.45-.744.74-.492.285-1.013.285-.524 0-.966-.294-.438-.294-.69-.79-.25-.5-.25-1.08 0-.574.253-1.07.257-.496.7-.79.446-.297.97-.297.497 0 .923.268.43.266.694.717.265.45.31.988zm.645-2.09h.396l1.414 3.352 1.406-3.353h.413l-1.806 4.315z" /></svg>