<svg xmlns="http://www.w3.org/2000/svg" viewBox="0 0 32 32"><path fill="#f4d0a4" d="M8.534 27.233c-2.85-1.518-5.486-3.064-5.86-3.436-.678-.676-.678-.676-.673-6.92.006-5.605.053-6.343.467-7.19.254-.52.834-1.202 1.29-1.516.456-.313 3.205-1.835 6.11-3.38 4.204-2.24 5.46-2.806 6.166-2.79.49.013 3.322.617 6.293 1.345C26.098 4.27 27.81 4.79 28 5.07c.193.284.197.513.01.788-.144.21-2.698 1.66-5.675 3.22-2.976 1.555-5.654 2.887-5.954 2.958-.296.073-2.787-.385-5.53-1.018-2.745-.628-5.13-1.094-5.3-1.033-.17.06-.373.265-.45.453-.08.19-.04.516.08.728.128.21 2.1 1.36 4.383 2.554 2.285 1.193 4.46 2.45 4.834 2.79.677.624.677.624.677 6.823 0 5.895-.022 6.21-.476 6.438-.263.13-.568.234-.677.23-.11-.004-2.533-1.247-5.384-2.766zm8.82 2.51c-.23-.216-.307-1.84-.307-6.527 0-6.24 0-6.24.714-6.797.39-.31 2.558-1.527 4.812-2.708 2.254-1.183 4.095-2.27 4.095-2.42 0-.15-.612-.594-1.355-.986-.748-.388-1.36-.804-1.36-.92 0-.116.307-.408.68-.65.374-.24.89-.51 1.148-.594.32-.11 1.003.136 2.158.776 1.203.66 1.74 1.107 1.876 1.552.1.344.186 3.308.186 6.59 0 5.138-.052 6.053-.4 6.538-.225.315-2.728 1.803-5.698 3.384-2.914 1.552-5.508 2.872-5.767 2.934-.26.064-.61-.013-.78-.172z"/><path fill="#cda1d5" d="M17.355 29.743c-.232-.216-.308-1.84-.308-6.527 0-6.24 0-6.24.714-6.797.39-.31 2.558-1.527 4.812-2.708 2.254-1.183 4.095-2.27 4.095-2.42 0-.15-.612-.594-1.355-.986-.748-.388-1.36-.804-1.36-.92 0-.116.307-.408.68-.65.374-.24.89-.51 1.148-.594.32-.11 1.003.136 2.158.776 1.203.66 1.74 1.107 1.876 1.552.1.344.186 3.308.186 6.59 0 5.138-.052 6.053-.4 6.538-.225.315-2.728 1.803-5.698 3.384-2.914 1.552-5.508 2.872-5.767 2.934-.26.064-.61-.013-.78-.172zM8.45 26.86c-4-2.117-5.608-3.09-5.86-3.544-.274-.49-.348-1.88-.347-6.425 0-3.192.11-6.167.245-6.615.133-.445.605-1.132 1.046-1.526.443-.396 2.94-1.85 5.55-3.24 2.612-1.386 5.043-2.737 5.4-3.002.438-.318.99-.47 1.67-.458.56.01 3.393.603 6.297 1.318 3.67.903 5.364 1.423 5.55 1.7.19.28.194.516.014.782-.143.208-1.696 1.138-3.452 2.068-1.76.93-4.355 2.27-5.768 2.983-2.573 1.297-2.573 1.297-4.196.8-.895-.272-3.218-.862-5.17-1.31-3.293-.755-3.585-.786-4.132-.453-.323.197-.586.547-.586.776 0 .23.21.598.47.814.26.22 2.452 1.458 4.87 2.755 2.77 1.48 4.517 2.56 4.71 2.906.216.394.305 2.158.308 6.127.002 3.413-.096 5.748-.252 6.018-.14.246-.39.446-.555.446-.163 0-2.777-1.314-5.81-2.92z"/><path fill="#e6870d" d="M10.014 27.477c-2.036-1.116-4.42-2.42-5.3-2.9-.88-.484-1.74-1.133-1.917-1.45-.24-.436-.3-2.04-.25-6.764.065-6.053.08-6.208.638-6.934.326-.426 1.596-1.302 2.96-2.045 1.316-.715 3.99-2.184 5.947-3.26 3.557-1.96 3.557-1.96 9.347-.595 3.184.753 5.97 1.49 6.187 1.64.357.243.36.31.032.604-.206.18-2.704 1.532-5.552 3.003-2.853 1.47-5.455 2.735-5.788 2.814-.335.077-1.277-.035-2.098-.25-.82-.217-3.044-.757-4.938-1.2-2.67-.623-3.57-.75-4-.567-.31.13-.63.49-.714.797-.083.307-.03.767.115 1.02.147.254 2.24 1.494 4.648 2.753 2.41 1.26 4.58 2.456 4.82 2.66.397.335.43.88.37 6.493-.057 5.246-.12 6.133-.437 6.166-.204.02-2.036-.874-4.07-1.99zm7.576 1.794c-.215-.196-.296-1.825-.293-5.903.002-4.056.09-5.79.312-6.196.208-.38 1.84-1.378 4.867-2.98 2.79-1.477 4.59-2.57 4.638-2.813.058-.275-.31-.628-1.167-1.125-.69-.4-1.25-.81-1.25-.916 0-.1.288-.365.644-.585.626-.377.69-.368 1.984.26.737.36 1.556.91 1.822 1.222.45.535.482.96.482 6.493 0 3.812-.095 6.117-.27 6.472-.187.377-1.997 1.48-5.663 3.45-2.963 1.595-5.486 2.9-5.603 2.9-.117 0-.344-.126-.508-.277z"/></svg>